<svg xmlns="http://www.w3.org/2000/svg" viewBox="0 0 18 18">
  <defs>
    <radialGradient id="a" cx="9.15" cy="8.72" r="10.44" gradientUnits="userSpaceOnUse">
      <stop offset="0.27" stop-color="#f9d585"/>
      <stop offset="0.46" stop-color="#f4bd47"/>
      <stop offset="0.7" stop-color="#eba600"/>
    </radialGradient>
    <radialGradient id="b" cx="5.26" cy="3.68" r="12.23" gradientUnits="userSpaceOnUse">
      <stop offset="0" stop-color="#a67af4"/>
      <stop offset="0.28" stop-color="#8b5ce6"/>
      <stop offset="0.67" stop-color="#6b34d5"/>
      <stop offset="1" stop-color="#552bc4"/>
    </radialGradient>
  </defs>
  <path d="M9,16.42a12.38,12.38,0,0,1-5.14-1C1.93,14.42.78,12.87.78,11.24V6.76C.78,5.13,1.93,3.58,3.86,2.59A12.38,12.38,0,0,1,9,1.58a12.38,12.38,0,0,1,5.14,1c1.93,1,3.08,2.54,3.08,4.17v4.48c0,1.63-1.15,3.18-3.08,4.17A12.38,12.38,0,0,1,9,16.42Z" fill="url(#a)"/>
  <path d="M9,1.58a12.38,12.38,0,0,1,5.14,1c1.93,1,3.08,2.54,3.08,4.17S16.07,9.93,14.14,10.92A12.38,12.38,0,0,1,9,11.93a12.38,12.38,0,0,1-5.14-1C1.93,9.93.78,8.39.78,6.76S1.93,3.58,3.86,2.59A12.38,12.38,0,0,1,9,1.58Z" fill="url(#b)"/>
  <ellipse cx="9" cy="6.76" rx="7.32" ry="4.28" fill="none" stroke="#b796f9" stroke-miterlimit="10" stroke-width="0.36" opacity="0.75"/>
</svg>
